<svg version="1.1" xmlns="http://www.w3.org/2000/svg" style="display: block;" viewBox="133.333 0 1780 2048" width="1780" height="2048" preserveAspectRatio="none">
<defs>
	<linearGradient id="Gradient1" gradientUnits="userSpaceOnUse" x1="1476.58" y1="972.964" x2="1674.3" y2="1004.43">
		<stop class="stop0" offset="0" stop-opacity="1" stop-color="rgb(168,136,236)"/>
		<stop class="stop1" offset="1" stop-opacity="1" stop-color="rgb(202,183,241)"/>
	</linearGradient>
	<linearGradient id="Gradient2" gradientUnits="userSpaceOnUse" x1="851.919" y1="817.772" x2="860.123" y2="801.141">
		<stop class="stop0" offset="0" stop-opacity="1" stop-color="rgb(239,230,246)"/>
		<stop class="stop1" offset="1" stop-opacity="1" stop-color="rgb(255,252,254)"/>
	</linearGradient>
	<linearGradient id="Gradient3" gradientUnits="userSpaceOnUse" x1="882.403" y1="1431.37" x2="758.557" y2="661.952">
		<stop class="stop0" offset="0" stop-opacity="1" stop-color="rgb(190,156,245)"/>
		<stop class="stop1" offset="1" stop-opacity="1" stop-color="rgb(240,236,245)"/>
	</linearGradient>
	<linearGradient id="Gradient4" gradientUnits="userSpaceOnUse" x1="1135.19" y1="735.181" x2="1173.95" y2="613.656">
		<stop class="stop0" offset="0" stop-opacity="1" stop-color="rgb(233,228,245)"/>
		<stop class="stop1" offset="1" stop-opacity="1" stop-color="rgb(255,255,255)"/>
	</linearGradient>
	<linearGradient id="Gradient5" gradientUnits="userSpaceOnUse" x1="1159.58" y1="1431.77" x2="1267.12" y2="724.174">
		<stop class="stop0" offset="0" stop-opacity="1" stop-color="rgb(189,156,245)"/>
		<stop class="stop1" offset="1" stop-opacity="1" stop-color="rgb(235,229,246)"/>
	</linearGradient>
</defs>
<path transform="translate(0,0)" fill="rgb(41,23,153)" d="M 1713.15 36.903 L 1717.04 36.7956 C 1719.84 38.2888 1719.41 37.4639 1720.91 40.3747 C 1722.43 43.3198 1721.52 49.8791 1720.6 52.9568 C 1712.42 80.2651 1703.75 107.722 1695.37 134.952 L 1647.97 290.675 L 1607.96 424.501 C 1598.97 455.173 1589.88 489.318 1578.97 519.13 C 1614.97 555.49 1653.88 611.064 1680 654.864 C 1803.97 862.778 1815.47 1143.77 1701.67 1359 C 1723.76 1383.46 1869.77 1547.11 1872.19 1561 C 1872.7 1563.94 1872.07 1564.71 1870.47 1566.95 C 1867.61 1568.41 1865.62 1568.57 1862.49 1568.06 C 1771.09 1553.27 1679.32 1534.9 1587.76 1521.42 C 1521.37 1617.4 1393.15 1702.26 1285.36 1742.99 C 1101.37 1812.77 897.206 1806.67 717.71 1726.03 C 703.999 1738.34 682.044 1754.9 667.222 1766.52 L 589.596 1827.72 C 503.558 1895.75 416.909 1963 329.658 2029.46 C 326.422 2031.61 322.624 2033.98 318.347 2032.7 C 316.094 2032.03 314.518 2029.8 313.817 2027.68 C 312.817 2024.66 312.99 2019.56 313.853 2016.51 C 318.359 2000.6 323.919 1984.2 329.074 1968.51 L 361.871 1870.52 C 383.284 1808.11 405.203 1745.87 427.626 1683.81 C 441.915 1644.39 458.029 1599.26 473.931 1560.61 C 256.586 1355.06 200.835 985.12 336.794 720.752 C 289.087 666.065 244.4 607.007 196.837 552.028 C 191.469 545.824 176.567 528.073 175.438 520.463 C 183.73 511.638 265.347 524.727 280.844 526.779 C 338.318 534.532 395.711 542.874 453.015 551.801 C 462.106 538.775 481.221 518.204 492.217 506.643 C 562.931 432.442 648.185 373.619 742.655 333.846 C 933.661 254.373 1144.66 269.034 1333.48 346.77 C 1414.51 277.63 1496.35 209.452 1579 142.25 L 1654.51 81.601 C 1674.01 66.0591 1692.48 50.9297 1713.15 36.903 z M 889.592 542.332 C 871.698 536.491 867.575 532.473 857.52 516.891 C 763.738 550.763 701.745 590.651 633.626 664.963 C 624.932 674.474 616.62 684.328 608.712 694.502 C 604.717 699.633 597.882 709.195 593.755 713.64 C 595.104 730.426 601.289 748.224 603.274 765.364 C 606.368 769.246 607.492 769.775 612.176 771.858 L 614.963 772.7 L 615.107 773.967 C 606.815 779.352 556.318 787.583 544.22 789.325 C 500.888 874.184 473.185 960.523 479.48 1057.2 C 480.357 1070.66 482.246 1092.28 485.357 1105.14 C 496.442 1104.32 516.795 1111.67 518.791 1124.04 C 512.599 1135.49 500.605 1143.77 490.404 1151.75 C 496.045 1175.33 501.397 1196.98 509.6 1219.83 C 539.97 1304.44 590.836 1384.33 662.619 1439.41 C 689.985 1437.75 719.23 1434.51 746.303 1433.79 C 753.339 1462.5 756.775 1482.04 756.979 1512.03 C 779.631 1521.84 799.852 1532.6 823.382 1541.77 C 942.965 1588.4 1032.04 1593.54 1154.82 1562.66 C 1153.59 1546.65 1153.67 1531.99 1171.28 1525.59 C 1185.11 1528 1193.3 1538.78 1199 1550.88 C 1301.16 1511.79 1357.63 1468.57 1428.8 1386.74 C 1427.14 1370.53 1421.51 1326.33 1428.94 1313.6 L 1428.77 1312.78 C 1435.37 1299.92 1484.72 1306.37 1494.68 1301.98 C 1504.06 1279.7 1517.32 1257.85 1527.04 1233.82 C 1562.32 1146.61 1570.78 1068.22 1565.73 975.543 C 1551.51 972.91 1541.17 971.665 1532.11 959.486 C 1535.46 946.104 1550.66 937.296 1562.97 933.013 C 1548.99 838.958 1502.45 751.393 1441.2 679.831 C 1425.57 661.559 1409.23 646.932 1394.71 630.522 L 1394.16 629.892 C 1378.85 633.313 1330.94 643.319 1317.87 639.08 C 1315.12 636.517 1315.97 638.029 1315.15 634.42 L 1315.21 623.304 C 1313.15 609.719 1310.34 584.595 1309.83 571.191 C 1251.21 539.143 1203.83 514.564 1137.74 499.619 C 1075.08 485.448 1014.09 483.066 950.583 493.379 C 937.776 495.459 920.727 496.712 909.637 503.634 C 902.592 508.032 900.854 512.804 899.142 520.445 C 897.921 530.404 897.371 535.285 889.592 542.332 z"/>
<path transform="translate(0,0)" fill="rgb(41,23,153)" d="M 927.134 566.372 C 970.228 562.764 998.558 582.957 1021.91 617.155 C 1065.03 553.624 1137.77 548.687 1188.76 606.194 C 1249.68 613.44 1278.25 630.928 1297.89 690.485 C 1365.89 702.292 1407.15 757.745 1398.95 826.367 C 1419.56 843.375 1440.68 859.76 1453.38 883.559 C 1474.54 923.185 1467.98 957.429 1456.24 997.921 C 1467.45 1019.82 1477.14 1038.79 1479.83 1063.62 C 1484 1102.01 1469.69 1133.89 1444.16 1161.56 C 1445.33 1165.71 1446.46 1169.88 1447.52 1174.07 C 1459.53 1222.37 1445.56 1273.95 1407.61 1306.66 C 1388.97 1322.73 1370.99 1330.18 1347.45 1336.03 C 1337.14 1375.95 1321.03 1411.53 1279.92 1427.6 C 1263.22 1434.13 1245.97 1435.8 1228.56 1439.48 C 1197.02 1487.49 1155.85 1505.01 1099.43 1494.08 C 1060.03 1483.58 1042.12 1463.05 1020.12 1430.88 C 1000.09 1461.49 978.019 1484.98 940.829 1493.83 C 904.003 1502.59 859.586 1491.82 832.483 1464.95 C 823.685 1456.23 815.321 1443.33 805.142 1436.62 C 799.118 1432.65 786.656 1429.84 779.21 1427.45 C 770.297 1424.57 761.777 1420.6 753.848 1415.61 C 722.953 1395.99 712.293 1370.9 704.526 1336.86 C 665.529 1325.16 637.045 1313.82 612.071 1279.43 C 583.755 1240.43 582.301 1204.4 594.069 1159.45 C 563.021 1124.03 547.026 1081.92 564.5 1035.47 C 570.165 1020.41 578.027 1008.49 586.449 994.913 C 568.686 941.713 568.383 888.222 614.232 848.849 C 624.033 840.433 635.432 833.557 644.507 824.396 L 645.591 823.291 C 641.236 754.969 681.835 699.762 750.91 690.711 C 766.887 632.455 800.183 611.18 858.455 606.535 C 878.173 582.405 895.853 570.182 927.134 566.372 z"/>
<path transform="translate(0,0)" fill="url(#Gradient5)" d="M 1041.02 691.943 C 1040.95 664.938 1041.07 635.491 1060.96 614.658 C 1089.6 584.671 1152.19 588.652 1166.21 631.478 C 1168.32 637.93 1170.48 662.718 1178.08 662.864 C 1188.75 663.069 1193.37 643.922 1195.51 635.478 C 1232.19 640.87 1260.85 656.774 1266.65 696.202 C 1270.34 711.913 1266.26 718.154 1286.77 720.95 C 1300.58 720.123 1311.16 719.986 1323.89 726.976 C 1346.07 739.159 1367.1 766.22 1370.04 791.804 C 1373.16 806.065 1371.46 831.125 1365.35 844.837 C 1373.29 849.304 1384.24 851.436 1389.88 856.369 C 1443.37 900.317 1452.44 939.623 1419.21 1001.58 C 1435.4 1018.12 1443.6 1029.79 1449.15 1052.83 C 1454.48 1077.05 1451.5 1103.86 1438.07 1125.05 C 1432.9 1133.24 1426.31 1140.44 1418.61 1146.31 C 1396.25 1162.28 1380.62 1165.93 1353.62 1164.9 C 1347.32 1165.94 1340.38 1167.65 1339.49 1174.7 C 1345.76 1191.43 1380.17 1189.29 1394.33 1186.45 C 1410.36 1181.17 1421.33 1175.57 1423.64 1197.13 C 1423.64 1231 1416.73 1256.48 1392.33 1281.62 C 1370.82 1303.78 1344.93 1306.15 1315.61 1310.37 C 1316.27 1324.42 1316.86 1333.61 1313.23 1347.36 C 1304.43 1380.7 1277.41 1403.34 1243 1405.8 C 1239.63 1406.04 1237.14 1405.79 1234.38 1403.67 C 1233.4 1399.56 1233.84 1396.48 1234.06 1392.28 C 1226.47 1382.11 1225.56 1378.64 1212.53 1381.14 C 1212.26 1385.44 1212.09 1391.31 1211.54 1395.46 C 1202.59 1442.4 1168.65 1471.07 1120.15 1467.97 C 1097.95 1466.74 1077.2 1456.58 1062.6 1439.82 C 1039.56 1413.6 1038.74 1381.1 1040.99 1347.98 C 1042.15 1306.41 1041.14 1260.18 1041.16 1218.25 L 1041.14 960.758 L 1041.15 781.888 C 1041.17 752.692 1042.68 720.576 1041.02 691.943 z"/>
<path transform="translate(0,0)" fill="url(#Gradient4)" d="M 1041.02 691.943 C 1040.95 664.938 1041.07 635.491 1060.96 614.658 C 1089.6 584.671 1152.19 588.652 1166.21 631.478 C 1168.32 637.93 1170.48 662.718 1178.08 662.864 C 1188.75 663.069 1193.37 643.922 1195.51 635.478 C 1232.19 640.87 1260.85 656.774 1266.65 696.202 C 1266.42 699.489 1266.94 702.859 1264.64 704.481 C 1258.99 708.462 1248.94 713.252 1244.59 718.375 C 1232.17 733.015 1227.81 755.461 1210.43 765.715 C 1210.81 764.176 1211.69 763.024 1212.51 761.68 C 1207.5 750.83 1178.72 739.181 1167.66 735.327 C 1162.03 733.367 1153.4 727.625 1148.2 726.422 C 1117.38 719.289 1089.75 709.807 1062.53 693.475 C 1060.29 692.13 1045.13 692.088 1041.02 691.943 z"/>
<path transform="translate(0,0)" fill="rgb(135,93,229)" d="M 1394.33 1186.45 C 1410.36 1181.17 1421.33 1175.57 1423.64 1197.13 C 1423.64 1231 1416.73 1256.48 1392.33 1281.62 C 1370.82 1303.78 1344.93 1306.15 1315.61 1310.37 C 1316.27 1324.42 1316.86 1333.61 1313.23 1347.36 C 1304.43 1380.7 1277.41 1403.34 1243 1405.8 C 1239.63 1406.04 1237.14 1405.79 1234.38 1403.67 C 1233.4 1399.56 1233.84 1396.48 1234.06 1392.28 C 1234.96 1379.57 1233.29 1370.6 1231.54 1358.09 C 1252.18 1357.23 1274.21 1354.27 1287.19 1336.35 C 1286.64 1329.68 1286.54 1325.32 1283.09 1319.64 C 1301.26 1306.47 1307.71 1292.89 1310.78 1271.06 C 1360.95 1269.82 1387.65 1259.82 1400.11 1208.92 C 1400.49 1203 1400.6 1189.16 1394.33 1186.45 z"/>
<path transform="translate(0,0)" fill="rgb(180,152,237)" d="M 1394.33 1186.45 C 1410.36 1181.17 1421.33 1175.57 1423.64 1197.13 C 1420.85 1202.48 1406.13 1207.27 1400.11 1208.92 C 1400.49 1203 1400.6 1189.16 1394.33 1186.45 z"/>
<path transform="translate(0,0)" fill="rgb(93,58,207)" d="M 1266.65 696.202 C 1270.34 711.913 1266.26 718.154 1286.77 720.95 C 1264.01 730.345 1247.57 752.838 1249.23 777.972 C 1251.83 785.573 1253 788.599 1256.71 795.673 C 1259.2 801.374 1261.8 805.25 1259.55 811.131 C 1251.64 817.295 1237.21 807.815 1228.3 805.25 C 1220.16 810.124 1178.67 811.868 1168.77 809.284 C 1148.36 818.361 1134.48 838.325 1126.4 858.495 C 1123.9 864.738 1118.88 881.807 1112.67 883.037 C 1101.47 878.83 1103.62 863.278 1105.06 853.822 C 1110.82 815.938 1138.07 791.164 1173.54 779.964 C 1183.42 776.844 1202.92 772.43 1210.43 765.715 C 1227.81 755.461 1232.17 733.015 1244.59 718.375 C 1248.94 713.252 1258.99 708.462 1264.64 704.481 C 1266.94 702.859 1266.42 699.489 1266.65 696.202 z"/>
<path transform="translate(0,0)" fill="rgb(254,254,254)" d="M 1168.77 809.284 C 1187.16 798.364 1208.6 797.986 1228.3 805.25 C 1220.16 810.124 1178.67 811.868 1168.77 809.284 z"/>
<path transform="translate(0,0)" fill="rgb(135,93,229)" d="M 1040.99 1347.98 C 1045.48 1361.56 1049.39 1375.62 1057.46 1387.59 C 1090.24 1436.22 1157.68 1445.84 1189.75 1390.78 C 1198.77 1393.68 1202.03 1395.06 1211.54 1395.46 C 1202.59 1442.4 1168.65 1471.07 1120.15 1467.97 C 1097.95 1466.74 1077.2 1456.58 1062.6 1439.82 C 1039.56 1413.6 1038.74 1381.1 1040.99 1347.98 z"/>
<path transform="translate(0,0)" fill="rgb(93,58,207)" d="M 1196.8 1351.38 C 1190.82 1345.6 1173.4 1336.93 1166.2 1328.29 C 1156.98 1317.23 1147.27 1302.92 1148.43 1287.79 C 1148.5 1283.52 1151.11 1273.76 1155.12 1271.22 C 1170.38 1261.58 1175.55 1292.72 1179.83 1299.43 C 1188.81 1313.51 1202.5 1324.2 1218.04 1328.69 C 1242.62 1335.8 1261.27 1331.31 1283.09 1319.64 C 1286.54 1325.32 1286.64 1329.68 1287.19 1336.35 C 1274.21 1354.27 1252.18 1357.23 1231.54 1358.09 C 1233.29 1370.6 1234.96 1379.57 1234.06 1392.28 C 1226.47 1382.11 1225.56 1378.64 1212.53 1381.14 C 1205.26 1366.24 1208.44 1368.08 1196.8 1351.38 z"/>
<path transform="translate(0,0)" fill="rgb(254,254,254)" d="M 1286.77 720.95 C 1300.58 720.123 1311.16 719.986 1323.89 726.976 C 1346.07 739.159 1367.1 766.22 1370.04 791.804 C 1370.01 795.828 1370.12 797.193 1369.24 801.052 C 1366.59 799.487 1346.35 779.729 1341.8 775.701 C 1339.65 773.857 1337.17 772.15 1334.87 770.469 C 1304.78 751.353 1282.84 753.062 1255.77 775.425 C 1253.33 776.464 1251.79 777.161 1249.23 777.972 C 1247.57 752.838 1264.01 730.345 1286.77 720.95 z"/>
<path transform="translate(0,0)" fill="rgb(93,58,207)" d="M 1365.35 844.837 C 1373.29 849.304 1384.24 851.436 1389.88 856.369 C 1378.58 879.826 1365.47 895.666 1340.93 905.72 C 1336.13 907.69 1332.04 909.502 1327.25 907.548 L 1326.26 905.016 C 1327.42 892.155 1343.79 878.743 1351.39 867.872 C 1357.87 858.612 1360.54 855.346 1365.35 844.837 z"/>
<path transform="translate(0,0)" fill="rgb(180,152,237)" d="M 1449.15 1052.83 C 1454.48 1077.05 1451.5 1103.86 1438.07 1125.05 C 1432.9 1133.24 1426.31 1140.44 1418.61 1146.31 C 1412.29 1142.77 1408.94 1141.01 1403.31 1136.43 C 1429.42 1111.04 1437.28 1085.18 1449.15 1052.83 z"/>
<path transform="translate(0,0)" fill="rgb(166,113,241)" d="M 1403.31 1136.43 C 1408.94 1141.01 1412.29 1142.77 1418.61 1146.31 C 1396.25 1162.28 1380.62 1165.93 1353.62 1164.9 C 1370.79 1161.19 1390.39 1147.93 1403.31 1136.43 z"/>
<path transform="translate(0,0)" fill="rgb(166,113,241)" d="M 1196.8 1351.38 C 1208.44 1368.08 1205.26 1366.24 1212.53 1381.14 C 1212.26 1385.44 1212.09 1391.31 1211.54 1395.46 C 1202.03 1395.06 1198.77 1393.68 1189.75 1390.78 C 1196.95 1374.44 1196.91 1369.2 1196.8 1351.38 z"/>
<path transform="translate(0,0)" fill="rgb(236,232,245)" d="M 1255.77 775.425 C 1258.77 787.917 1263.22 780.946 1256.71 795.673 C 1253 788.599 1251.83 785.573 1249.23 777.972 C 1251.79 777.161 1253.33 776.464 1255.77 775.425 z"/>
<path transform="translate(0,0)" fill="rgb(236,232,245)" d="M 1334.87 770.469 C 1337.17 772.15 1339.65 773.857 1341.8 775.701 C 1337.96 775.641 1338.54 776.214 1335.73 774.485 L 1334.87 770.469 z"/>
<path transform="translate(0,0)" fill="rgb(93,58,207)" d="M 1211.68 903.629 C 1230.46 906.858 1229.1 943.186 1225.52 957.177 C 1217.17 991.634 1185.07 1002.82 1154.94 1014.53 C 1075.2 1045.53 1105.26 1145.76 1179.28 1158.07 C 1196.64 1160.96 1226.65 1149.8 1241.58 1158.16 C 1243.8 1161.35 1243.37 1159.65 1243.04 1163.41 C 1239.64 1169.24 1235.11 1171.84 1229.46 1175.43 C 1225.06 1177.46 1220.47 1179.06 1215.76 1180.2 C 1187.2 1186.88 1157.16 1181.82 1132.36 1166.16 C 1062.3 1122.13 1064.62 1026.71 1140.31 990.754 C 1155.4 983.588 1176.72 982.687 1188.19 969.185 C 1205.48 948.85 1197.04 926.311 1211.68 903.629 z"/>
<path transform="translate(0,0)" fill="rgb(93,58,207)" d="M 1341.19 975.084 C 1353.42 982.472 1356.93 993.536 1356.46 1007.53 C 1355.66 1031.77 1346.01 1054.83 1328.43 1071.62 C 1307.63 1091.49 1287.88 1092.66 1260.64 1091.9 C 1254.97 1090.77 1244.52 1088.3 1245.56 1081.08 C 1252.3 1072.53 1272.5 1070.04 1282.8 1067.75 C 1308.36 1062.06 1326.11 1041.15 1329.96 1015.46 C 1332.05 1001.53 1333.17 987.357 1341.19 975.084 z"/>
<path transform="translate(0,0)" fill="url(#Gradient3)" d="M 849.603 635.388 C 851.326 642.196 854.405 657.647 863.814 657.274 C 869.356 657.123 873.387 648.071 874.51 643.261 C 881.556 613.096 906.78 593.721 939.135 594.482 C 956.319 594.827 972.637 602.089 984.397 614.624 C 1001.2 632.653 1001.84 653.011 1000.83 676.119 C 999.468 695.394 1001.43 720.215 999.976 736.423 C 1001.18 891.426 999.173 1047.66 998.845 1202.73 C 1000.22 1242.43 998.568 1282.91 998.953 1322.68 C 999.383 1367.28 1008.36 1405.37 975.288 1441.1 C 960.052 1457.69 938.701 1467.33 916.183 1467.79 C 885.2 1468.59 854.795 1454.68 838.496 1427.81 C 834.495 1421.22 831.606 1413.75 827.028 1407.6 C 826.271 1406.6 822.246 1405.75 820.83 1405.44 C 815.349 1406.29 811.968 1405.86 806.52 1405.48 C 768.314 1398.49 744.651 1379.27 734.436 1341.29 C 732.345 1330 732.396 1324.27 733.42 1312.71 L 732.859 1310.88 C 728.884 1309.21 714.512 1308.03 709.167 1306.99 L 707.287 1306.62 C 705.944 1306.4 704.604 1306.16 703.266 1305.9 C 673.142 1300.17 651.441 1285.22 633.824 1259.96 C 621.036 1241.62 612.448 1211.08 616.879 1188.88 C 617.083 1188.07 617.3 1187.26 617.531 1186.45 C 620.761 1175.16 629.492 1179.76 637.805 1182.32 C 647.628 1184.97 700.675 1195.23 694.241 1170.61 C 693.404 1167.41 690.392 1166.25 687.531 1164.99 C 642.2 1164.98 604.645 1140.68 590.475 1097.21 C 578.388 1060.54 594.195 1028.74 619.665 1002.8 L 620.767 1001.03 C 620.328 992.693 610.398 972.117 607.024 962.138 C 593.267 910.846 616.797 879.686 657.733 852.707 C 662.865 849.454 673.644 846.479 680.292 843.694 L 675.856 831.435 L 673.76 822.851 C 667.566 769.383 705.216 718.05 761.311 719.722 C 776.529 717.536 776.054 714.094 779.075 700.111 C 787.533 660.681 808.749 639.87 849.603 635.388 z"/>
<path transform="translate(0,0)" fill="rgb(180,152,237)" d="M 739.521 1300 C 743.95 1292.63 748.143 1285.65 753.831 1279.15 C 787.526 1310.43 816.651 1314.48 860.305 1299.77 C 865.701 1297.79 870.798 1296.17 876.551 1296.71 C 884.726 1305.71 891.492 1315.28 890.395 1327.92 C 887.443 1361.91 857.052 1369.8 830.821 1375.2 C 824.001 1377.45 820.069 1378.51 813.879 1382.17 C 810.159 1390.23 808.515 1396.82 806.52 1405.48 C 768.314 1398.49 744.651 1379.27 734.436 1341.29 C 732.345 1330 732.396 1324.27 733.42 1312.71 C 734.972 1306.47 735.762 1305.28 739.521 1300 z"/>
<path transform="translate(0,0)" fill="rgb(135,93,229)" d="M 762.155 1340.25 C 778.121 1359.14 786.874 1365.57 811.86 1371.19 C 816.273 1372.18 827.03 1374.03 830.821 1375.2 C 824.001 1377.45 820.069 1378.51 813.879 1382.17 C 810.159 1390.23 808.515 1396.82 806.52 1405.48 C 768.314 1398.49 744.651 1379.27 734.436 1341.29 C 742.636 1342.72 754.001 1341.77 762.155 1340.25 z"/>
<path transform="translate(0,0)" fill="rgb(166,113,241)" d="M 733.42 1312.71 C 734.972 1306.47 735.762 1305.28 739.521 1300 C 743.515 1315.46 751.791 1328.24 762.155 1340.25 C 754.001 1341.77 742.636 1342.72 734.436 1341.29 C 732.345 1330 732.396 1324.27 733.42 1312.71 z"/>
<path transform="translate(0,0)" fill="rgb(254,254,254)" d="M 849.603 635.388 C 851.326 642.196 854.405 657.647 863.814 657.274 C 869.356 657.123 873.387 648.071 874.51 643.261 C 881.556 613.096 906.78 593.721 939.135 594.482 C 956.319 594.827 972.637 602.089 984.397 614.624 C 1001.2 632.653 1001.84 653.011 1000.83 676.119 C 1000.33 676.103 997.994 675.595 997.849 675.358 C 989.981 662.56 982.447 652.579 970.577 643.405 C 964.747 639.146 956.463 635.55 949.502 634.008 C 935.438 630.842 920.691 633.431 908.547 641.201 C 899.984 646.766 895.946 650.833 889.249 658.57 C 883.017 664.243 876.756 677.585 872.397 679.662 C 836.499 662.696 811.615 682.151 790.069 708.781 C 783.309 706.206 781.802 706.741 779.075 700.111 C 787.533 660.681 808.749 639.87 849.603 635.388 z"/>
<path transform="translate(0,0)" fill="rgb(93,58,207)" d="M 761.311 719.722 C 776.529 717.536 776.054 714.094 779.075 700.111 C 781.802 706.741 783.309 706.206 790.069 708.781 C 814.224 724.717 814.169 752.678 838.774 765.539 C 851.316 774.022 866.428 776.975 880.501 781.981 C 909.36 791.997 930.93 816.305 937.443 846.15 C 939.415 855.311 940.16 873.132 935.191 881.025 C 933.686 881.715 933.006 882.448 931.775 881.623 C 911.857 868.28 913.939 834.564 892.084 818.606 C 884.654 819.1 859.019 806.201 848.677 804.297 C 838.65 802.45 833.81 806.36 824.637 804.473 C 823.237 804.185 823.027 802.746 822.192 801.04 C 810.37 803.217 791.706 813.988 784.396 810.943 C 781.052 803.408 792.471 784.728 796.048 775.373 C 797 748.205 782.032 734.387 761.311 719.722 z"/>
<path transform="translate(0,0)" fill="url(#Gradient2)" d="M 822.192 801.04 C 845.828 796.108 874.849 800.225 892.084 818.606 C 884.654 819.1 859.019 806.201 848.677 804.297 C 838.65 802.45 833.81 806.36 824.637 804.473 C 823.237 804.185 823.027 802.746 822.192 801.04 z"/>
<path transform="translate(0,0)" fill="rgb(135,93,229)" d="M 855.848 1399.46 C 858.076 1402.65 860.472 1405.71 863.028 1408.64 C 887.908 1437.27 937.299 1431.71 963.463 1407.18 C 999.696 1373.21 997.992 1349 998.113 1303.48 C 998.197 1272.02 996.758 1235.13 998.754 1204.03 L 998.845 1202.73 C 1000.22 1242.43 998.568 1282.91 998.953 1322.68 C 999.383 1367.28 1008.36 1405.37 975.288 1441.1 C 960.052 1457.69 938.701 1467.33 916.183 1467.79 C 885.2 1468.59 854.795 1454.68 838.496 1427.81 C 834.495 1421.22 831.606 1413.75 827.028 1407.6 C 826.271 1406.6 822.246 1405.75 820.83 1405.44 C 827.245 1401.84 847.896 1399.99 855.848 1399.46 z"/>
<path transform="translate(0,0)" fill="rgb(93,58,207)" d="M 724.026 1266.13 C 727.856 1259.24 734.186 1253.92 737.465 1247.1 C 740.051 1241.72 739.642 1232.98 741.302 1226.18 C 748.585 1196.36 789.581 1164.6 820.283 1175.41 C 834.848 1184.13 817.924 1192.57 809.772 1196.07 C 790.34 1204.42 761.698 1215.65 766.654 1242.28 C 771.62 1268.97 792.208 1281.79 816.794 1287.06 C 829.569 1291.12 853.713 1292.5 860.305 1299.77 C 816.651 1314.48 787.526 1310.43 753.831 1279.15 C 748.143 1285.65 743.95 1292.63 739.521 1300 C 735.762 1305.28 734.972 1306.47 733.42 1312.71 L 732.859 1310.88 C 728.884 1309.21 714.512 1308.03 709.167 1306.99 L 707.287 1306.62 C 707.937 1306.31 708.586 1306.01 709.236 1305.7 C 712.501 1293.66 719.597 1277 724.026 1266.13 z"/>
<path transform="translate(0,0)" fill="rgb(236,232,245)" d="M 790.069 708.781 C 811.615 682.151 836.499 662.696 872.397 679.662 L 870.928 681.649 C 871.56 685.856 871.901 695.253 875.947 696.416 C 893.91 701.578 902.462 701.157 901.899 723.279 C 901.874 724.286 905.051 724.358 905.197 728.48 C 898.361 737.669 872.552 724.473 862.396 723.536 C 857.526 723.086 859.462 725.293 856.792 724.03 C 854.482 722.316 851.516 718.62 849.553 716.381 C 849.613 724.538 850.722 741.647 847.262 747.843 C 843.089 755.316 841.48 756.429 838.774 765.539 C 814.169 752.678 814.224 724.717 790.069 708.781 z"/>
<path transform="translate(0,0)" fill="rgb(166,113,241)" d="M 616.879 1188.88 C 617.083 1188.07 617.3 1187.26 617.531 1186.45 C 620.761 1175.16 629.492 1179.76 637.805 1182.32 C 633.818 1187.39 637.446 1200.96 638.891 1207.27 C 647.414 1230.33 659.469 1250 682.518 1261.08 C 693.252 1266.23 712.799 1269.28 724.026 1266.13 C 719.597 1277 712.501 1293.66 709.236 1305.7 C 708.586 1306.01 707.937 1306.31 707.287 1306.62 C 705.944 1306.4 704.604 1306.16 703.266 1305.9 C 673.142 1300.17 651.441 1285.22 633.824 1259.96 C 621.036 1241.62 612.448 1211.08 616.879 1188.88 z"/>
<path transform="translate(0,0)" fill="rgb(180,152,237)" d="M 616.879 1188.88 C 617.083 1188.07 617.3 1187.26 617.531 1186.45 C 620.761 1175.16 629.492 1179.76 637.805 1182.32 C 633.818 1187.39 637.446 1200.96 638.891 1207.27 C 624.348 1203.94 616.241 1205.44 616.879 1188.88 z"/>
<path transform="translate(0,0)" fill="rgb(93,58,207)" d="M 887.212 1282.35 C 894.882 1286.11 899.102 1288.16 905.405 1294.24 C 940.896 1328.46 896.15 1394.65 855.848 1399.46 C 847.896 1399.99 827.245 1401.84 820.83 1405.44 C 815.349 1406.29 811.968 1405.86 806.52 1405.48 C 808.515 1396.82 810.159 1390.23 813.879 1382.17 C 820.069 1378.51 824.001 1377.45 830.821 1375.2 C 857.052 1369.8 887.443 1361.91 890.395 1327.92 C 891.492 1315.28 884.726 1305.71 876.551 1296.71 C 881.337 1292.09 883.719 1287.92 887.212 1282.35 z"/>
<path transform="translate(0,0)" fill="rgb(254,254,254)" d="M 673.76 822.851 C 667.566 769.383 705.216 718.05 761.311 719.722 C 782.032 734.387 797 748.205 796.048 775.373 C 791.743 774.048 782.05 768.551 778.005 766.158 C 748.952 748.97 720.566 758.147 700.673 783.587 C 689.929 797.327 686.643 807.209 680.754 823.29 L 673.76 822.851 z"/>
<path transform="translate(0,0)" fill="rgb(254,254,254)" d="M 657.733 852.707 C 663.874 866.812 671.122 876.259 685.903 882.462 C 679.917 885.306 671.144 887.455 664.822 889.545 C 643.331 896.65 627.37 911.125 619.789 932.62 C 616.608 940.93 612.557 956.14 607.024 962.138 C 593.267 910.846 616.797 879.686 657.733 852.707 z"/>
<path transform="translate(0,0)" fill="rgb(236,232,245)" d="M 970.577 643.405 C 982.447 652.579 989.981 662.56 997.849 675.358 C 997.994 675.595 1000.33 676.103 1000.83 676.119 C 999.468 695.394 1001.43 720.215 999.976 736.423 L 998.241 745.471 L 997.945 742.982 C 991.717 737.596 992.676 729.512 988.77 721.408 C 981.506 719.193 969.791 726.557 962.757 720.654 C 958.62 704.991 970.504 708.101 975.199 697.198 C 977.419 687.3 968.11 676.967 971.814 667.527 C 974.853 659.785 974.03 658.879 969.035 653.862 C 968.137 650.334 969.553 646.998 970.577 643.405 z"/>
<path transform="translate(0,0)" fill="rgb(180,152,237)" d="M 597.273 1073.69 C 603.352 1081.3 609.105 1094.74 614.352 1103.51 C 631.063 1131.71 656.869 1153.39 687.531 1164.99 C 642.2 1164.98 604.645 1140.68 590.475 1097.21 C 594.372 1092.78 596.064 1080.02 597.273 1073.69 z"/>
<path transform="translate(0,0)" fill="rgb(254,254,254)" d="M 619.665 1002.8 C 621.905 1023.84 604.203 1051.41 597.273 1073.69 C 596.064 1080.02 594.372 1092.78 590.475 1097.21 C 578.388 1060.54 594.195 1028.74 619.665 1002.8 z"/>
<path transform="translate(0,0)" fill="rgb(93,58,207)" d="M 680.292 843.694 C 685.4 852.914 698.145 870.962 696.273 880.498 C 693.284 883.967 690.286 883.819 685.903 882.462 C 671.122 876.259 663.874 866.812 657.733 852.707 C 662.865 849.454 673.644 846.479 680.292 843.694 z"/>
<path transform="translate(0,0)" fill="rgb(135,93,229)" d="M 816.794 1287.06 C 843.076 1287.56 855.574 1278.37 887.212 1282.35 C 883.719 1287.92 881.337 1292.09 876.551 1296.71 C 870.798 1296.17 865.701 1297.79 860.305 1299.77 C 853.713 1292.5 829.569 1291.12 816.794 1287.06 z"/>
<path transform="translate(0,0)" fill="rgb(236,232,245)" d="M 908.547 641.201 C 908.071 643.361 907.392 648.704 905.164 649.172 C 899.606 650.339 893.232 657.352 889.249 658.57 C 895.946 650.833 899.984 646.766 908.547 641.201 z"/>
<path transform="translate(0,0)" fill="rgb(254,254,254)" d="M 673.76 822.851 L 680.754 823.29 C 679.361 827.645 678.936 827.875 675.856 831.435 L 673.76 822.851 z"/>
<path transform="translate(0,0)" fill="rgb(93,58,207)" d="M 781.218 988.977 C 755.447 957.628 759.385 908.598 792.095 884.05 C 800.595 877.671 814.124 868.031 823.238 877.924 C 823.902 881.583 822.14 884.758 819.881 887.755 C 806.254 905.834 787.266 919.387 791.502 945.255 C 793.624 958.218 801.521 971.393 812.784 978.839 C 827.574 988.373 846.046 989.597 862.993 993.779 C 897.948 1002.4 919.336 1027.27 928.003 1061.47 C 932.275 1078.32 928.423 1122.71 910.832 1130.29 C 896.764 1128.16 906.805 1079.55 901.51 1065.22 L 900.718 1065.58 C 896.863 1064.78 884.554 1042.69 875.684 1037.49 C 847.681 1021.05 812.272 1026.25 787.655 1003.11 C 783.151 998.872 781.103 994.986 781.218 988.977 z"/>
<path transform="translate(0,0)" fill="rgb(254,254,254)" d="M 781.218 988.977 C 789.041 995.704 795.948 1001.18 805.303 1005.6 C 843.82 1023.78 889.033 1011.83 901.51 1065.22 L 900.718 1065.58 C 896.863 1064.78 884.554 1042.69 875.684 1037.49 C 847.681 1021.05 812.272 1026.25 787.655 1003.11 C 783.151 998.872 781.103 994.986 781.218 988.977 z"/>
<path transform="translate(0,0)" fill="rgb(93,58,207)" d="M 672.409 976.524 C 682.907 981.681 681.874 994.546 682.489 1004.95 C 684.195 1033.79 697.955 1063.15 726.648 1073.49 C 735.772 1076.79 745.449 1077.73 754.698 1080.59 C 760.842 1082.51 767.003 1084.3 770.264 1090.29 C 770.247 1097.82 764.201 1098.42 758.028 1099.97 C 752.23 1100.74 747.332 1101.06 741.479 1100.82 C 718.728 1099.83 697.278 1089.93 681.765 1073.26 C 660.199 1049.65 645.23 1001.18 672.409 976.524 z"/>
<path transform="translate(0,0)" fill="rgb(254,254,254)" d="M 355.323 737.827 C 372.232 755.475 396.207 781.452 414.155 797.03 C 417.31 788.511 420.976 780.921 427.206 774.231 C 431.75 779.387 434.722 782.23 440.632 785.956 C 441.351 785.771 466.431 788.925 471.722 788.864 C 481.573 772.848 491.072 756.618 500.213 740.187 C 514.333 746.706 599.041 771.78 612.176 771.858 L 614.963 772.7 L 615.107 773.967 C 606.815 779.352 556.318 787.583 544.22 789.325 C 500.888 874.184 473.185 960.523 479.48 1057.2 C 480.357 1070.66 482.246 1092.28 485.357 1105.14 C 496.442 1104.32 516.795 1111.67 518.791 1124.04 C 512.599 1135.49 500.605 1143.77 490.404 1151.75 C 496.045 1175.33 501.397 1196.98 509.6 1219.83 C 539.97 1304.44 590.836 1384.33 662.619 1439.41 C 689.985 1437.75 719.23 1434.51 746.303 1433.79 C 753.339 1462.5 756.775 1482.04 756.979 1512.03 C 779.631 1521.84 799.852 1532.6 823.382 1541.77 C 942.965 1588.4 1032.04 1593.54 1154.82 1562.66 C 1153.59 1546.65 1153.67 1531.99 1171.28 1525.59 C 1185.11 1528 1193.3 1538.78 1199 1550.88 C 1301.16 1511.79 1357.63 1468.57 1428.8 1386.74 C 1427.14 1370.53 1421.51 1326.33 1428.94 1313.6 C 1430.86 1316.9 1438.98 1336.97 1441.49 1342.54 C 1453.82 1370.07 1466.01 1397.66 1478.07 1425.31 C 1481.71 1434.93 1494.48 1466.61 1499.55 1474.49 C 1483.41 1494.82 1457.49 1519.44 1437.99 1536.38 C 1340.11 1621.35 1218.54 1674.29 1089.66 1688.08 C 955.975 1703.38 866.214 1673.46 739.864 1646.78 C 705.7 1678.13 666.171 1710.76 630.685 1741.07 C 556.99 1803.84 482.736 1865.94 407.932 1927.39 C 397.918 1935.52 376.399 1954.35 366.179 1958.92 L 365.178 1958.88 L 364.568 1957.5 C 369.638 1938.82 378.501 1917.22 385.635 1898.86 L 418.726 1814.32 C 450.565 1732.27 482.938 1650.44 515.842 1568.82 C 510.513 1562.79 500.302 1553.41 494.258 1547.34 C 482.496 1535.53 471.139 1523.33 460.208 1510.75 C 396.158 1435.91 347.99 1348.84 318.632 1254.81 C 275.137 1115.18 275.51 965.574 319.699 826.164 C 329 797.095 341.004 764.876 355.323 737.827 z"/>
<path transform="translate(0,0)" fill="rgb(180,152,237)" d="M 1428.8 1386.74 C 1427.14 1370.53 1421.51 1326.33 1428.94 1313.6 C 1430.86 1316.9 1438.98 1336.97 1441.49 1342.54 C 1453.82 1370.07 1466.01 1397.66 1478.07 1425.31 C 1481.71 1434.93 1494.48 1466.61 1499.55 1474.49 C 1483.41 1494.82 1457.49 1519.44 1437.99 1536.38 C 1340.11 1621.35 1218.54 1674.29 1089.66 1688.08 C 955.975 1703.38 866.214 1673.46 739.864 1646.78 L 739.906 1646.28 L 737.809 1643.96 C 736.482 1639.5 737.45 1636.59 738.252 1631.96 C 739.712 1622.44 739.808 1586.34 744.047 1580.1 C 798.734 1605.7 856.43 1624.31 915.772 1635.49 C 987.402 1648.11 1060.77 1647.16 1132.05 1632.68 C 1147.41 1629.69 1169.49 1625.61 1182.1 1616.84 C 1172.48 1592.52 1155.04 1548.84 1171.28 1525.59 C 1185.11 1528 1193.3 1538.78 1199 1550.88 C 1301.16 1511.79 1357.63 1468.57 1428.8 1386.74 z"/>
<path transform="translate(0,0)" fill="rgb(41,23,153)" d="M 1428.8 1386.74 C 1427.14 1370.53 1421.51 1326.33 1428.94 1313.6 C 1430.86 1316.9 1438.98 1336.97 1441.49 1342.54 C 1453.82 1370.07 1466.01 1397.66 1478.07 1425.31 C 1417.97 1489.27 1367.13 1542.24 1286.17 1580.2 C 1261.71 1591.67 1240.78 1599.73 1215.73 1609.77 C 1209.93 1590.26 1204.71 1570.48 1199 1550.88 C 1301.16 1511.79 1357.63 1468.57 1428.8 1386.74 z"/>
<path transform="translate(0,0)" fill="rgb(210,194,243)" d="M 738.252 1631.96 C 747.49 1634.1 757.114 1639.25 765.622 1643.54 C 758.566 1644.04 744.831 1646.58 739.906 1646.28 L 737.809 1643.96 C 736.482 1639.5 737.45 1636.59 738.252 1631.96 z"/>
<path transform="translate(0,0)" fill="rgb(93,58,207)" d="M 355.323 737.827 C 372.232 755.475 396.207 781.452 414.155 797.03 C 348.477 964.353 346.548 1138.14 418.204 1304.17 C 446.226 1369.09 493.71 1447.22 548.086 1493.45 C 537.343 1516.95 526.381 1547.4 515.842 1568.82 C 510.513 1562.79 500.302 1553.41 494.258 1547.34 C 482.496 1535.53 471.139 1523.33 460.208 1510.75 C 396.158 1435.91 347.99 1348.84 318.632 1254.81 C 275.137 1115.18 275.51 965.574 319.699 826.164 C 329 797.095 341.004 764.876 355.323 737.827 z"/>
<path transform="translate(0,0)" fill="rgb(41,23,153)" d="M 425.537 1150.91 C 434.48 1148.72 449.387 1146.76 458.83 1145.54 C 484.511 1142.22 496.981 1136.26 518.791 1124.04 C 512.599 1135.49 500.605 1143.77 490.404 1151.75 C 496.045 1175.33 501.397 1196.98 509.6 1219.83 C 539.97 1304.44 590.836 1384.33 662.619 1439.41 C 689.985 1437.75 719.23 1434.51 746.303 1433.79 C 753.339 1462.5 756.775 1482.04 756.979 1512.03 C 779.631 1521.84 799.852 1532.6 823.382 1541.77 C 942.965 1588.4 1032.04 1593.54 1154.82 1562.66 C 1153.59 1546.65 1153.67 1531.99 1171.28 1525.59 C 1155.04 1548.84 1172.48 1592.52 1182.1 1616.84 C 1169.49 1625.61 1147.41 1629.69 1132.05 1632.68 C 1060.77 1647.16 987.402 1648.11 915.772 1635.49 C 856.43 1624.31 798.734 1605.7 744.047 1580.1 C 738.457 1577.31 743.174 1462.32 736.703 1454.34 L 734.849 1454.48 C 702.299 1463.7 662.081 1482.58 631.122 1497.23 C 606.659 1476.04 591.948 1465.86 568.433 1440.72 C 502.988 1370.75 451.358 1275.36 431.511 1181.63 C 429.194 1171.74 427.398 1160.96 425.537 1150.91 z"/>
<path transform="translate(0,0)" fill="rgb(135,93,229)" d="M 734.849 1454.48 L 736.703 1454.34 C 743.174 1462.32 738.457 1577.31 744.047 1580.1 C 739.808 1586.34 739.712 1622.44 738.252 1631.96 C 737.45 1636.59 736.482 1639.5 737.809 1643.96 L 739.906 1646.28 L 739.864 1646.78 C 705.7 1678.13 666.171 1710.76 630.685 1741.07 C 556.99 1803.84 482.736 1865.94 407.932 1927.39 C 403.522 1922.78 401.504 1920.61 396.404 1916.73 C 406.786 1901.01 422.233 1881.15 433.616 1865.73 L 504.917 1769.63 C 581.17 1666.97 660.974 1560.63 735.238 1456.54 L 734.849 1454.48 z"/>
<path transform="translate(0,0)" fill="rgb(41,23,153)" d="M 500.213 740.187 C 514.333 746.706 599.041 771.78 612.176 771.858 L 614.963 772.7 L 615.107 773.967 C 606.815 779.352 556.318 787.583 544.22 789.325 C 500.888 874.184 473.185 960.523 479.48 1057.2 C 480.357 1070.66 482.246 1092.28 485.357 1105.14 C 473.717 1109.81 433.927 1114.95 420.494 1116.63 C 404.934 1018.41 418.594 929.121 452.297 835.714 C 445.24 829.277 438.38 820.212 432.382 812.626 L 428.675 810.825 C 432.771 802.589 436.757 794.298 440.632 785.956 C 441.351 785.771 466.431 788.925 471.722 788.864 C 481.573 772.848 491.072 756.618 500.213 740.187 z"/>
<path transform="translate(0,0)" fill="rgb(166,113,241)" d="M 440.632 785.956 C 441.351 785.771 466.431 788.925 471.722 788.864 C 468.864 794.628 466.278 799.966 463.684 805.854 C 459.822 815.559 455.499 825.83 452.297 835.714 C 445.24 829.277 438.38 820.212 432.382 812.626 L 428.675 810.825 C 432.771 802.589 436.757 794.298 440.632 785.956 z"/>
<path transform="translate(0,0)" fill="rgb(180,152,237)" d="M 432.382 812.626 C 439.182 810.487 457.749 803.699 463.684 805.854 C 459.822 815.559 455.499 825.83 452.297 835.714 C 445.24 829.277 438.38 820.212 432.382 812.626 z"/>
<path transform="translate(0,0)" fill="rgb(210,194,243)" d="M 428.675 810.825 L 432.382 812.626 C 438.38 820.212 445.24 829.277 452.297 835.714 C 418.594 929.121 404.934 1018.41 420.494 1116.63 C 433.927 1114.95 473.717 1109.81 485.357 1105.14 C 496.442 1104.32 516.795 1111.67 518.791 1124.04 C 496.981 1136.26 484.511 1142.22 458.83 1145.54 C 449.387 1146.76 434.48 1148.72 425.537 1150.91 C 427.398 1160.96 429.194 1171.74 431.511 1181.63 C 422.93 1180.61 398.607 1171.98 395.397 1172.85 C 392.68 1164.53 386.682 1128.13 385.526 1118.8 C 374.645 1032.04 382.858 943.94 409.591 860.68 C 414.778 844.689 421.201 825.922 428.675 810.825 z"/>
<path transform="translate(0,0)" fill="rgb(180,152,237)" d="M 395.397 1172.85 C 398.607 1171.98 422.93 1180.61 431.511 1181.63 C 451.358 1275.36 502.988 1370.75 568.433 1440.72 C 591.948 1465.86 606.659 1476.04 631.122 1497.23 C 624.39 1501.34 615.968 1504.69 608.402 1506.97 C 607.753 1506.62 607.111 1506.27 606.475 1505.9 C 595.335 1499.46 573.543 1487.45 564.836 1479.4 C 472.995 1394.54 425.915 1291.64 395.397 1172.85 z"/>
<path transform="translate(0,0)" fill="rgb(93,58,207)" d="M 396.404 1916.73 C 401.504 1920.61 403.522 1922.78 407.932 1927.39 C 397.918 1935.52 376.399 1954.35 366.179 1958.92 C 370.91 1950.3 389.498 1926.3 396.404 1916.73 z"/>
<path transform="translate(0,0)" fill="rgb(254,254,254)" d="M 1352.75 382.859 C 1371.82 365.095 1393.15 346.764 1412.71 329.37 C 1457.9 289.249 1503.32 249.375 1548.94 209.747 C 1575.58 186.588 1602.43 163.662 1629.47 140.972 C 1639.43 132.676 1661.02 114.309 1671.29 107.478 L 1673.4 108.076 C 1670.64 121.973 1661.45 146.72 1656.62 160.668 L 1627.82 243.717 C 1610.19 295.456 1592.89 347.306 1575.92 399.263 C 1563.99 435.65 1551.01 474.036 1539.97 510.638 C 1533.64 530.965 1519.17 574.321 1515.56 593.758 C 1507.23 593.999 1498.19 594.081 1489.94 594.67 C 1509.57 618.229 1530.75 643.435 1548.02 668.759 C 1541.39 671.829 1529.94 671.41 1521.28 674.961 C 1486.67 628.755 1430.36 569.41 1380.6 539.736 C 1370.05 555.605 1324.99 626.677 1315.15 634.42 L 1315.21 623.304 C 1313.15 609.719 1310.34 584.595 1309.83 571.191 C 1251.21 539.143 1203.83 514.564 1137.74 499.619 C 1075.08 485.448 1014.09 483.066 950.583 493.379 C 937.776 495.459 920.727 496.712 909.637 503.634 C 902.592 508.032 900.854 512.804 899.142 520.445 C 897.921 530.404 897.371 535.285 889.592 542.332 C 871.698 536.491 867.575 532.473 857.52 516.891 C 763.738 550.763 701.745 590.651 633.626 664.963 C 624.932 674.474 616.62 684.328 608.712 694.502 C 604.717 699.633 597.882 709.195 593.755 713.64 C 595.104 730.426 601.289 748.224 603.274 765.364 C 606.368 769.246 607.492 769.775 612.176 771.858 C 599.041 771.78 514.333 746.706 500.213 740.187 C 491.072 756.618 481.573 772.848 471.722 788.864 C 466.431 788.925 441.351 785.771 440.632 785.956 C 434.722 782.23 431.75 779.387 427.206 774.231 C 415.223 759.058 399.576 742.131 386.488 727.412 C 357.958 695.534 329.237 663.828 300.326 632.296 C 288.419 619.204 240.997 567.035 234.591 552.902 L 235.218 551.581 L 237.9 551.962 L 239.139 551.934 C 267.692 554.775 308.222 562.828 337.38 567.649 L 547.571 603.702 C 556.052 594.336 564.783 585.199 573.754 576.3 C 566.256 572.25 488.496 559.735 476.458 558.383 C 490.671 540.509 512.49 518.744 528.975 503.05 C 616.576 418.015 724.738 357.161 842.892 326.434 C 977.321 292.297 1095.53 295.762 1228.69 333.516 C 1268.12 344.692 1317.4 361.863 1352.75 382.859 z"/>
<path transform="translate(0,0)" fill="rgb(93,58,207)" d="M 476.458 558.383 C 490.671 540.509 512.49 518.744 528.975 503.05 C 616.576 418.015 724.738 357.161 842.892 326.434 C 977.321 292.297 1095.53 295.762 1228.69 333.516 C 1268.12 344.692 1317.4 361.863 1352.75 382.859 C 1337.12 397.962 1302.23 429.443 1285.33 441.991 C 1255.27 429.962 1226.82 417.764 1195.63 409.009 C 1057.48 370.963 910.508 381.04 778.849 437.584 C 721.013 462.455 667.134 495.667 618.928 536.161 C 603.57 548.909 588.79 563.075 573.754 576.3 C 566.256 572.25 488.496 559.735 476.458 558.383 z"/>
<path transform="translate(0,0)" fill="rgb(135,93,229)" d="M 1673.4 108.076 C 1670.64 121.973 1661.45 146.72 1656.62 160.668 L 1627.82 243.717 C 1610.19 295.456 1592.89 347.306 1575.92 399.263 C 1563.99 435.65 1551.01 474.036 1539.97 510.638 C 1533.64 530.965 1519.17 574.321 1515.56 593.758 C 1507.23 593.999 1498.19 594.081 1489.94 594.67 C 1509.57 618.229 1530.75 643.435 1548.02 668.759 C 1541.39 671.829 1529.94 671.41 1521.28 674.961 C 1486.67 628.755 1430.36 569.41 1380.6 539.736 C 1409.4 496.92 1437.87 453.887 1466.01 410.64 C 1505.71 351.166 1545.74 291.914 1586.09 232.887 C 1613.21 193.28 1644.32 145.688 1673.4 108.076 z"/>
<path transform="translate(0,0)" fill="rgb(41,23,153)" d="M 881.26 446.456 C 915.837 438.511 945.44 432.334 981.17 429.46 C 1094.3 420.358 1222.13 444.412 1319.06 505.097 C 1321.8 506.817 1324.54 508.551 1327.26 510.299 C 1323.55 545.098 1321.95 591.389 1316.79 624.284 L 1316.11 624.419 L 1315.21 623.304 C 1313.15 609.719 1310.34 584.595 1309.83 571.191 C 1251.21 539.143 1203.83 514.564 1137.74 499.619 C 1075.08 485.448 1014.09 483.066 950.583 493.379 C 937.776 495.459 920.727 496.712 909.637 503.634 C 902.592 508.032 900.854 512.804 899.142 520.445 C 896.102 508.901 892.951 490.611 890.306 478.341 C 886.795 467.521 884.149 457.438 881.26 446.456 z"/>
<path transform="translate(0,0)" fill="rgb(41,23,153)" d="M 847.505 456.534 C 853.458 450.669 872.922 445.052 881.26 446.456 C 884.149 457.438 886.795 467.521 890.306 478.341 C 892.951 490.611 896.102 508.901 899.142 520.445 C 897.921 530.404 897.371 535.285 889.592 542.332 C 871.698 536.491 867.575 532.473 857.52 516.891 C 763.738 550.763 701.745 590.651 633.626 664.963 C 624.932 674.474 616.62 684.328 608.712 694.502 C 604.717 699.633 597.882 709.195 593.755 713.64 C 587.196 695.957 574.171 668.894 566.388 650.371 C 634.575 569.848 712.215 507.62 811.305 470.476 C 822.597 466.242 837.176 461.935 847.505 456.534 z"/>
<path transform="translate(0,0)" fill="rgb(180,152,237)" d="M 847.505 456.534 C 853.458 450.669 872.922 445.052 881.26 446.456 C 884.149 457.438 886.795 467.521 890.306 478.341 C 892.951 490.611 896.102 508.901 899.142 520.445 C 897.921 530.404 897.371 535.285 889.592 542.332 C 869.317 524.045 857.919 495.184 852.127 469.069 C 849.864 464.029 848.882 461.963 847.505 456.534 z"/>
<path transform="translate(0,0)" fill="rgb(210,194,243)" d="M 847.505 456.534 C 853.458 450.669 872.922 445.052 881.26 446.456 C 884.149 457.438 886.795 467.521 890.306 478.341 C 877.228 484.608 862.95 475.829 852.127 469.069 C 849.864 464.029 848.882 461.963 847.505 456.534 z"/>
<path transform="translate(0,0)" fill="rgb(180,152,237)" d="M 427.206 774.231 C 415.223 759.058 399.576 742.131 386.488 727.412 C 357.958 695.534 329.237 663.828 300.326 632.296 C 288.419 619.204 240.997 567.035 234.591 552.902 L 235.218 551.581 L 237.9 551.962 L 239.139 551.934 L 239.747 554.093 C 361.281 623.899 482.458 694.323 603.274 765.364 C 606.368 769.246 607.492 769.775 612.176 771.858 C 599.041 771.78 514.333 746.706 500.213 740.187 C 491.072 756.618 481.573 772.848 471.722 788.864 C 466.431 788.925 441.351 785.771 440.632 785.956 C 434.722 782.23 431.75 779.387 427.206 774.231 z"/>
<path transform="translate(0,0)" fill="url(#Gradient1)" d="M 1539.97 510.638 C 1574.76 547.169 1601.15 576.11 1630.51 617.936 C 1717.58 743.408 1762.5 893.318 1758.77 1046 C 1756.11 1132.25 1738.67 1217.4 1707.23 1297.76 C 1702.29 1310.53 1694.11 1333.61 1684.42 1342.52 C 1668.58 1332.28 1643.02 1297.91 1629.19 1288.59 L 1617.52 1314.88 C 1663.22 1361.94 1708.27 1409.64 1752.64 1457.96 C 1765.67 1472.02 1806.12 1514.22 1815.47 1528.46 L 1816.73 1529.64 C 1811.87 1531.99 1800.12 1527.62 1795.2 1527.56 C 1759.84 1527.18 1514.98 1466.54 1499.55 1474.49 C 1494.48 1466.61 1481.71 1434.93 1478.07 1425.31 C 1466.01 1397.66 1453.82 1370.07 1441.49 1342.54 C 1438.98 1336.97 1430.86 1316.9 1428.94 1313.6 L 1428.77 1312.78 C 1435.37 1299.92 1484.72 1306.37 1494.68 1301.98 C 1504.06 1279.7 1517.32 1257.85 1527.04 1233.82 C 1562.32 1146.61 1570.78 1068.22 1565.73 975.543 C 1551.51 972.91 1541.17 971.665 1532.11 959.486 C 1535.46 946.104 1550.66 937.296 1562.97 933.013 C 1548.99 838.958 1502.45 751.393 1441.2 679.831 C 1425.57 661.559 1409.23 646.932 1394.71 630.522 L 1394.16 629.892 C 1378.85 633.313 1330.94 643.319 1317.87 639.08 C 1315.12 636.517 1315.97 638.029 1315.15 634.42 C 1324.99 626.677 1370.05 555.605 1380.6 539.736 C 1430.36 569.41 1486.67 628.755 1521.28 674.961 C 1529.94 671.41 1541.39 671.829 1548.02 668.759 C 1530.75 643.435 1509.57 618.229 1489.94 594.67 C 1498.19 594.081 1507.23 593.999 1515.56 593.758 C 1519.17 574.321 1533.64 530.965 1539.97 510.638 z"/>
<path transform="translate(0,0)" fill="rgb(93,58,207)" d="M 1539.97 510.638 C 1574.76 547.169 1601.15 576.11 1630.51 617.936 C 1717.58 743.408 1762.5 893.318 1758.77 1046 C 1756.11 1132.25 1738.67 1217.4 1707.23 1297.76 C 1702.29 1310.53 1694.11 1333.61 1684.42 1342.52 C 1668.58 1332.28 1643.02 1297.91 1629.19 1288.59 C 1630.85 1282.04 1637.43 1268.81 1640.06 1261.59 C 1644.35 1249.8 1648.06 1238.47 1651.87 1226.53 C 1671.94 1164.05 1682.47 1098.91 1683.1 1033.29 C 1684.77 894.024 1641.05 757.997 1558.54 645.787 C 1545.55 628.309 1530.77 609.317 1515.56 593.758 C 1519.17 574.321 1533.64 530.965 1539.97 510.638 z"/>
<path transform="translate(0,0)" fill="rgb(254,254,254)" d="M 1489.94 594.67 C 1498.19 594.081 1507.23 593.999 1515.56 593.758 C 1530.77 609.317 1545.55 628.309 1558.54 645.787 C 1641.05 757.997 1684.77 894.024 1683.1 1033.29 C 1682.47 1098.91 1671.94 1164.05 1651.87 1226.53 C 1648.06 1238.47 1644.35 1249.8 1640.06 1261.59 C 1637.43 1268.81 1630.85 1282.04 1629.19 1288.59 L 1617.52 1314.88 C 1663.22 1361.94 1708.27 1409.64 1752.64 1457.96 C 1765.67 1472.02 1806.12 1514.22 1815.47 1528.46 L 1816.73 1529.64 C 1811.87 1531.99 1800.12 1527.62 1795.2 1527.56 C 1759.84 1527.18 1514.98 1466.54 1499.55 1474.49 C 1494.48 1466.61 1481.71 1434.93 1478.07 1425.31 C 1466.01 1397.66 1453.82 1370.07 1441.49 1342.54 C 1438.98 1336.97 1430.86 1316.9 1428.94 1313.6 L 1428.77 1312.78 C 1435.37 1299.92 1484.72 1306.37 1494.68 1301.98 C 1503.98 1301.23 1550.91 1300.64 1558.46 1302.58 C 1564.7 1303.66 1599.18 1303.61 1606.23 1303.3 C 1610.05 1283.66 1622.65 1258.34 1629.48 1238.3 C 1644.26 1194.87 1654.51 1150.02 1660.06 1104.48 C 1674.7 979.129 1651.14 852.28 1592.48 740.54 C 1580.21 717.13 1564.42 689.658 1548.02 668.759 C 1530.75 643.435 1509.57 618.229 1489.94 594.67 z"/>
<path transform="translate(0,0)" fill="rgb(93,58,207)" d="M 1428.77 1312.78 C 1438.22 1316.84 1453.08 1325.62 1462.42 1330.8 L 1527.36 1367.32 L 1741.36 1488.88 C 1752.76 1495.32 1806.26 1526.68 1815.47 1528.46 L 1816.73 1529.64 C 1811.87 1531.99 1800.12 1527.62 1795.2 1527.56 C 1759.84 1527.18 1514.98 1466.54 1499.55 1474.49 C 1494.48 1466.61 1481.71 1434.93 1478.07 1425.31 C 1466.01 1397.66 1453.82 1370.07 1441.49 1342.54 C 1438.98 1336.97 1430.86 1316.9 1428.94 1313.6 L 1428.77 1312.78 z"/>
<path transform="translate(0,0)" fill="rgb(41,23,153)" d="M 1380.6 539.736 C 1430.36 569.41 1486.67 628.755 1521.28 674.961 C 1574.91 762.948 1607.92 821.72 1624.42 924.247 C 1610.41 927.56 1577.37 932.633 1562.97 933.013 C 1548.99 838.958 1502.45 751.393 1441.2 679.831 C 1425.57 661.559 1409.23 646.932 1394.71 630.522 L 1394.16 629.892 C 1378.85 633.313 1330.94 643.319 1317.87 639.08 C 1315.12 636.517 1315.97 638.029 1315.15 634.42 C 1324.99 626.677 1370.05 555.605 1380.6 539.736 z"/>
<path transform="translate(0,0)" fill="rgb(41,23,153)" d="M 1532.11 959.486 C 1557.68 970.471 1600.76 963.268 1628.4 959.374 C 1639.52 1062.41 1630.61 1141.52 1593.1 1239.52 C 1587.47 1254.23 1573.8 1288.77 1565.97 1301.79 C 1562.42 1302.72 1562.03 1302.58 1558.46 1302.58 C 1550.91 1300.64 1503.98 1301.23 1494.68 1301.98 C 1504.06 1279.7 1517.32 1257.85 1527.04 1233.82 C 1562.32 1146.61 1570.78 1068.22 1565.73 975.543 C 1551.51 972.91 1541.17 971.665 1532.11 959.486 z"/>
<path transform="translate(0,0)" fill="rgb(166,113,241)" d="M 923.638 154.468 C 928.629 152.88 934.088 154.133 937.887 157.738 C 941.686 161.342 943.222 166.729 941.898 171.795 C 940.573 176.862 936.597 180.807 931.52 182.092 C 923.99 183.997 916.308 179.574 914.177 172.104 C 912.046 164.634 916.236 156.823 923.638 154.468 z"/>
<path transform="translate(0,0)" fill="rgb(166,113,241)" d="M 724.007 208.502 C 728.999 207.032 734.396 208.379 738.113 212.022 C 741.83 215.665 743.285 221.034 741.917 226.055 C 740.549 231.077 736.571 234.965 731.519 236.218 C 723.938 238.099 716.243 233.576 714.199 226.036 C 712.156 218.497 716.513 210.707 724.007 208.502 z"/>
<path transform="translate(0,0)" fill="rgb(135,93,229)" d="M 1327.66 225.356 C 1332.54 223.622 1337.98 224.657 1341.89 228.063 C 1345.79 231.469 1347.56 236.717 1346.51 241.793 C 1345.46 246.868 1341.75 250.981 1336.81 252.553 C 1329.35 254.929 1321.36 250.88 1318.86 243.456 C 1316.36 236.032 1320.27 227.976 1327.66 225.356 z"/>
<path transform="translate(0,0)" fill="rgb(135,93,229)" d="M 914.668 1858.45 C 922.146 1855.8 930.349 1859.74 932.969 1867.22 C 935.589 1874.71 931.629 1882.9 924.134 1885.5 C 916.672 1888.08 908.525 1884.15 905.917 1876.69 C 903.308 1869.24 907.222 1861.08 914.668 1858.45 z"/>
<path transform="translate(0,0)" fill="rgb(166,113,241)" d="M 625.793 252.506 C 630.544 250.49 636.012 251.192 640.1 254.342 C 644.188 257.492 646.26 262.601 645.522 267.708 C 644.783 272.816 641.349 277.129 636.537 278.992 C 629.258 281.811 621.065 278.269 618.131 271.036 C 615.197 263.803 618.608 255.554 625.793 252.506 z"/>
<path transform="translate(0,0)" fill="rgb(135,93,229)" d="M 1659.65 464.439 C 1664.55 462.82 1669.95 463.974 1673.76 467.459 C 1677.57 470.943 1679.21 476.214 1678.04 481.245 C 1676.86 486.275 1673.07 490.281 1668.11 491.722 C 1660.63 493.894 1652.79 489.674 1650.48 482.236 C 1648.17 474.797 1652.25 466.881 1659.65 464.439 z"/>
<path transform="translate(0,0)" fill="rgb(135,93,229)" d="M 1762.43 642.456 C 1769.78 639.704 1777.98 643.412 1780.76 650.752 C 1783.54 658.092 1779.87 666.3 1772.54 669.115 C 1765.17 671.946 1756.9 668.245 1754.1 660.861 C 1751.3 653.478 1755.04 645.225 1762.43 642.456 z"/>
<path transform="translate(0,0)" fill="rgb(135,93,229)" d="M 1571.86 1660.29 C 1576.72 1658.67 1582.07 1659.78 1585.88 1663.2 C 1589.69 1666.63 1591.37 1671.83 1590.27 1676.83 C 1589.18 1681.84 1585.48 1685.86 1580.59 1687.38 C 1573.14 1689.7 1565.22 1685.58 1562.82 1678.16 C 1560.43 1670.73 1564.46 1662.77 1571.86 1660.29 z"/>
<path transform="translate(0,0)" fill="rgb(135,93,229)" d="M 1781.04 1376.41 C 1788.63 1375.12 1795.87 1380.11 1797.36 1387.66 C 1798.86 1395.21 1794.07 1402.59 1786.56 1404.29 C 1781.52 1405.43 1776.25 1403.75 1772.81 1399.89 C 1769.37 1396.03 1768.29 1390.6 1770 1385.72 C 1771.71 1380.84 1775.94 1377.28 1781.04 1376.41 z"/>
<path transform="translate(0,0)" fill="rgb(166,113,241)" d="M 1128.56 164.372 C 1133.42 162.605 1138.85 163.611 1142.75 167 C 1146.65 170.389 1148.41 175.627 1147.33 180.681 C 1146.26 185.735 1142.53 189.809 1137.59 191.322 C 1130.22 193.578 1122.39 189.551 1119.95 182.243 C 1117.5 174.935 1121.32 167.008 1128.56 164.372 z"/>
<path transform="translate(0,0)" fill="rgb(135,93,229)" d="M 1231.29 186.297 C 1238.83 184.443 1246.46 188.983 1248.43 196.493 C 1250.4 204.002 1245.98 211.701 1238.5 213.782 C 1233.56 215.157 1228.26 213.764 1224.64 210.136 C 1221.01 206.509 1219.62 201.211 1221 196.272 C 1222.38 191.334 1226.31 187.522 1231.29 186.297 z"/>
<path transform="translate(0,0)" fill="rgb(135,93,229)" d="M 1115.15 1864.21 C 1122.79 1862.85 1130.12 1867.88 1131.59 1875.51 C 1133.06 1883.13 1128.13 1890.53 1120.52 1892.1 C 1115.51 1893.14 1110.32 1891.4 1106.95 1887.55 C 1103.58 1883.69 1102.55 1878.32 1104.24 1873.49 C 1105.94 1868.66 1110.11 1865.11 1115.15 1864.21 z"/>
<path transform="translate(0,0)" fill="rgb(135,93,229)" d="M 1306.12 1816.51 C 1313.57 1814.18 1321.5 1818.31 1323.87 1825.74 C 1326.24 1833.18 1322.15 1841.14 1314.73 1843.54 C 1307.25 1845.97 1299.23 1841.85 1296.84 1834.36 C 1294.45 1826.87 1298.61 1818.86 1306.12 1816.51 z"/>
<path transform="translate(0,0)" fill="rgb(166,113,241)" d="M 208.656 791.353 C 213.592 790.042 218.851 791.487 222.424 795.135 C 225.998 798.783 227.334 804.07 225.923 808.978 C 224.511 813.885 220.57 817.655 215.605 818.847 C 208.054 820.66 200.449 816.062 198.546 808.533 C 196.643 801.004 201.15 793.345 208.656 791.353 z"/>
<path transform="translate(0,0)" fill="rgb(166,113,241)" d="M 1028.21 152.578 C 1033.23 151.522 1038.43 153.261 1041.8 157.123 C 1045.17 160.986 1046.2 166.37 1044.47 171.201 C 1042.75 176.031 1038.55 179.554 1033.5 180.411 C 1025.89 181.702 1018.65 176.667 1017.21 169.086 C 1015.77 161.505 1020.66 154.166 1028.21 152.578 z"/>
<path transform="translate(0,0)" fill="rgb(166,113,241)" d="M 389.303 463.404 C 397.072 462.497 404.103 468.067 404.995 475.838 C 405.888 483.609 400.303 490.628 392.531 491.506 C 384.78 492.38 377.784 486.815 376.894 479.066 C 376.004 471.317 381.556 464.31 389.303 463.404 z"/>
<path transform="translate(0,0)" fill="rgb(135,93,229)" d="M 1716.62 551.448 C 1724.08 549.828 1731.48 554.423 1733.33 561.828 C 1735.19 569.232 1730.83 576.771 1723.49 578.858 C 1718.53 580.267 1713.19 578.864 1709.57 575.196 C 1705.94 571.529 1704.61 566.179 1706.07 561.237 C 1707.54 556.294 1711.58 552.543 1716.62 551.448 z"/>
<path transform="translate(0,0)" fill="rgb(135,93,229)" d="M 1838.13 1167.39 C 1845.63 1165.26 1853.43 1169.6 1855.58 1177.1 C 1857.73 1184.59 1853.4 1192.41 1845.91 1194.56 C 1838.4 1196.73 1830.56 1192.39 1828.41 1184.88 C 1826.26 1177.36 1830.61 1169.53 1838.13 1167.39 z"/>
<path transform="translate(0,0)" fill="rgb(166,113,241)" d="M 541.062 309.446 C 548.62 307.751 556.134 312.458 557.905 319.999 C 559.677 327.54 555.045 335.1 547.522 336.947 C 542.588 338.159 537.384 336.627 533.893 332.937 C 530.402 329.246 529.161 323.965 530.644 319.106 C 532.127 314.247 536.105 310.559 541.062 309.446 z"/>
<path transform="translate(0,0)" fill="rgb(135,93,229)" d="M 1645.07 1582.66 C 1650.08 1581.53 1655.31 1583.2 1658.72 1587.04 C 1662.14 1590.88 1663.2 1596.27 1661.49 1601.11 C 1659.78 1605.96 1655.57 1609.49 1650.5 1610.33 C 1642.97 1611.59 1635.81 1606.62 1634.34 1599.13 C 1632.87 1591.64 1637.63 1584.34 1645.07 1582.66 z"/>
<path transform="translate(0,0)" fill="rgb(135,93,229)" d="M 1817.22 1274.47 C 1822.25 1273.57 1827.38 1275.48 1830.61 1279.44 C 1833.84 1283.41 1834.68 1288.81 1832.78 1293.57 C 1830.89 1298.32 1826.57 1301.68 1821.5 1302.34 C 1813.9 1303.32 1806.91 1298.06 1805.75 1290.5 C 1804.58 1282.93 1809.67 1275.81 1817.22 1274.47 z"/>
<path transform="translate(0,0)" fill="rgb(166,113,241)" d="M 824.414 174.53 C 832.043 173.545 839.053 178.86 840.164 186.472 C 841.275 194.084 836.078 201.181 828.485 202.419 C 823.46 203.238 818.384 201.284 815.206 197.306 C 812.028 193.328 811.242 187.946 813.15 183.226 C 815.059 178.505 819.364 175.181 824.414 174.53 z"/>
<path transform="translate(0,0)" fill="rgb(166,113,241)" d="M 412.442 1604.54 C 419.763 1602.73 427.214 1607 429.342 1614.24 C 431.471 1621.47 427.522 1629.1 420.386 1631.54 C 415.486 1633.22 410.063 1632.07 406.262 1628.55 C 402.462 1625.04 400.898 1619.72 402.188 1614.7 C 403.479 1609.69 407.416 1605.79 412.442 1604.54 z"/>
<path transform="translate(0,0)" fill="rgb(135,93,229)" d="M 1830.29 842.632 C 1837.66 840.57 1845.33 844.769 1847.56 852.09 C 1849.79 859.411 1845.76 867.173 1838.49 869.57 C 1833.64 871.169 1828.31 870.017 1824.55 866.558 C 1820.79 863.099 1819.2 857.876 1820.39 852.909 C 1821.58 847.942 1825.37 844.009 1830.29 842.632 z"/>
<path transform="translate(0,0)" fill="rgb(135,93,229)" d="M 1213.49 1846.39 C 1221.05 1844.36 1228.81 1848.89 1230.77 1856.47 C 1232.72 1864.05 1228.12 1871.77 1220.52 1873.65 C 1213.03 1875.5 1205.44 1870.98 1203.51 1863.5 C 1201.58 1856.03 1206.03 1848.39 1213.49 1846.39 z"/>
<path transform="translate(0,0)" fill="rgb(166,113,241)" d="M 189.567 901.4 C 194.474 899.667 199.936 900.784 203.769 904.303 C 207.601 907.823 209.179 913.17 207.87 918.206 C 206.561 923.242 202.579 927.145 197.518 928.352 C 190.24 930.089 182.875 925.825 180.758 918.648 C 178.64 911.471 182.511 903.892 189.567 901.4 z"/>
<path transform="translate(0,0)" fill="rgb(166,113,241)" d="M 718.348 1808.38 C 725.924 1807.75 732.631 1813.26 733.491 1820.81 C 734.351 1828.36 729.053 1835.23 721.529 1836.32 C 716.455 1837.06 711.382 1834.97 708.291 1830.88 C 705.2 1826.79 704.58 1821.34 706.672 1816.66 C 708.765 1811.98 713.238 1808.81 718.348 1808.38 z"/>
<path transform="translate(0,0)" fill="rgb(166,113,241)" d="M 187.704 1123.26 C 195.182 1121.92 202.375 1126.76 203.951 1134.19 C 205.526 1141.62 200.914 1148.96 193.534 1150.77 C 188.551 1151.99 183.3 1150.4 179.83 1146.62 C 176.361 1142.84 175.223 1137.47 176.862 1132.61 C 178.501 1127.75 182.656 1124.17 187.704 1123.26 z"/>
<path transform="translate(0,0)" fill="rgb(135,93,229)" d="M 1015.12 1866.42 C 1022.52 1864.62 1030 1869.04 1032 1876.39 C 1033.99 1883.74 1029.77 1891.34 1022.48 1893.53 C 1017.58 1894.99 1012.28 1893.69 1008.62 1890.12 C 1004.97 1886.55 1003.54 1881.28 1004.89 1876.36 C 1006.24 1871.43 1010.16 1867.62 1015.12 1866.42 z"/>
<path transform="translate(0,0)" fill="rgb(135,93,229)" d="M 1846.53 949.48 C 1851.49 948.521 1856.58 950.303 1859.86 954.145 C 1863.14 957.987 1864.1 963.295 1862.37 968.042 C 1860.64 972.788 1856.5 976.24 1851.52 977.077 C 1843.95 978.35 1836.76 973.298 1835.39 965.742 C 1834.03 958.187 1838.99 950.938 1846.53 949.48 z"/>
<path transform="translate(0,0)" fill="rgb(135,93,229)" d="M 1398.53 1776.51 C 1403.36 1775.01 1408.62 1776.21 1412.31 1779.67 C 1415.99 1783.13 1417.53 1788.31 1416.33 1793.22 C 1415.13 1798.13 1411.38 1802.01 1406.51 1803.39 C 1399.14 1805.46 1391.46 1801.23 1389.28 1793.88 C 1387.09 1786.54 1391.22 1778.8 1398.53 1776.51 z"/>
<path transform="translate(0,0)" fill="rgb(135,93,229)" d="M 1845.7 1060.54 C 1850.59 1058.81 1856.05 1059.93 1859.87 1063.45 C 1863.69 1066.97 1865.25 1072.31 1863.92 1077.34 C 1862.6 1082.36 1858.6 1086.23 1853.54 1087.41 C 1846.29 1089.09 1839 1084.82 1836.92 1077.68 C 1834.84 1070.54 1838.69 1063.02 1845.7 1060.54 z"/>
<path transform="translate(0,0)" fill="rgb(135,93,229)" d="M 1803.97 739.356 C 1811.34 737.92 1818.54 742.549 1820.28 749.853 C 1822.03 757.157 1817.71 764.539 1810.48 766.592 C 1805.53 768 1800.21 766.579 1796.61 762.892 C 1793.02 759.204 1791.74 753.844 1793.28 748.93 C 1794.81 744.017 1798.92 740.341 1803.97 739.356 z"/>
<path transform="translate(0,0)" fill="rgb(166,113,241)" d="M 237.349 688.365 C 242.215 686.984 247.447 688.334 251.037 691.896 C 254.627 695.459 256.017 700.681 254.673 705.556 C 253.329 710.432 249.46 714.204 244.551 715.424 C 237.134 717.268 229.608 712.823 227.642 705.437 C 225.676 698.051 229.997 690.453 237.349 688.365 z"/>
<path transform="translate(0,0)" fill="rgb(166,113,241)" d="M 814.439 1838.23 C 821.909 1836.24 829.578 1840.69 831.552 1848.17 C 833.525 1855.64 829.053 1863.3 821.572 1865.25 C 814.12 1867.2 806.5 1862.75 804.534 1855.3 C 802.568 1847.85 806.998 1840.22 814.439 1838.23 z"/>
<path transform="translate(0,0)" fill="rgb(166,113,241)" d="M 241.358 1342.37 C 249.005 1341.18 256.164 1346.44 257.32 1354.09 C 258.477 1361.74 253.191 1368.87 245.534 1370 C 237.926 1371.11 230.847 1365.87 229.698 1358.26 C 228.549 1350.66 233.761 1343.56 241.358 1342.37 z"/>
<path transform="translate(0,0)" fill="rgb(166,113,241)" d="M 345.419 1526.49 C 352.431 1523.64 360.434 1526.9 363.463 1533.83 C 366.492 1540.77 363.443 1548.86 356.589 1552.06 C 351.993 1554.22 346.592 1553.71 342.482 1550.73 C 338.372 1547.75 336.2 1542.78 336.81 1537.74 C 337.421 1532.71 340.717 1528.4 345.419 1526.49 z"/>
<path transform="translate(0,0)" fill="rgb(166,113,241)" d="M 285.321 1441.52 C 290.104 1440 295.335 1441.16 299.02 1444.57 C 302.706 1447.98 304.277 1453.1 303.134 1457.99 C 301.992 1462.88 298.313 1466.78 293.499 1468.2 C 286.164 1470.36 278.453 1466.22 276.211 1458.91 C 273.969 1451.59 278.032 1443.84 285.321 1441.52 z"/>
<path transform="translate(0,0)" fill="rgb(166,113,241)" d="M 459.827 382.474 C 467.155 380.008 475.089 383.988 477.493 391.338 C 479.897 398.687 475.849 406.587 468.479 408.928 C 461.198 411.241 453.413 407.252 451.038 399.991 C 448.663 392.729 452.586 384.911 459.827 382.474 z"/>
<path transform="translate(0,0)" fill="rgb(135,93,229)" d="M 1487.91 1722.52 C 1495.37 1720.68 1502.91 1725.25 1504.73 1732.72 C 1506.55 1740.19 1501.97 1747.71 1494.49 1749.52 C 1487.04 1751.32 1479.54 1746.75 1477.73 1739.3 C 1475.91 1731.86 1480.46 1724.35 1487.91 1722.52 z"/>
<path transform="translate(0,0)" fill="rgb(166,113,241)" d="M 204.812 1236.46 C 212.055 1233.89 220.005 1237.71 222.522 1244.97 C 225.04 1252.24 221.16 1260.16 213.88 1262.62 C 206.674 1265.06 198.85 1261.23 196.358 1254.04 C 193.866 1246.85 197.641 1239 204.812 1236.46 z"/>
<path transform="translate(0,0)" fill="rgb(166,113,241)" d="M 184.455 1011.53 C 191.902 1010.12 199.083 1015.01 200.495 1022.46 C 201.907 1029.9 197.014 1037.09 189.567 1038.5 C 182.121 1039.91 174.941 1035.02 173.53 1027.57 C 172.119 1020.12 177.01 1012.94 184.455 1011.53 z"/>
</svg>